<mxfile host="app.diagrams.net" agent="Mozilla/5.0 (Macintosh; Intel Mac OS X 10_15_7) AppleWebKit/537.36 (KHTML, like Gecko) Chrome/131.0.0.0 Safari/537.36" version="24.7.8">
  <diagram name="Page-1" id="BeS-8dZvzgRyUmwv3kp0">
    <mxGraphModel dx="813" dy="505" grid="1" gridSize="10" guides="1" tooltips="1" connect="1" arrows="1" fold="1" page="1" pageScale="1" pageWidth="827" pageHeight="1169" math="0" shadow="0">
      <root>
        <mxCell id="0" />
        <mxCell id="1" parent="0" />
        <mxCell id="virhV7JLDFXRvlYUsdHr-1" value="" style="ellipse;whiteSpace=wrap;html=1;fillColor=none;dashed=1;strokeColor=#FF3068;" vertex="1" parent="1">
          <mxGeometry x="280" y="280" width="120" height="120" as="geometry" />
        </mxCell>
        <mxCell id="virhV7JLDFXRvlYUsdHr-7" value="" style="endArrow=none;html=1;rounded=0;" edge="1" parent="1">
          <mxGeometry width="50" height="50" relative="1" as="geometry">
            <mxPoint x="340.0000000000001" y="469.9999999999999" as="sourcePoint" />
            <mxPoint x="360.0000000000001" y="449.9999999999999" as="targetPoint" />
          </mxGeometry>
        </mxCell>
        <mxCell id="virhV7JLDFXRvlYUsdHr-8" value="" style="endArrow=none;html=1;rounded=0;" edge="1" parent="1">
          <mxGeometry width="50" height="50" relative="1" as="geometry">
            <mxPoint x="340.0000000000001" y="449.9999999999999" as="sourcePoint" />
            <mxPoint x="360.0000000000001" y="469.9999999999999" as="targetPoint" />
          </mxGeometry>
        </mxCell>
      </root>
    </mxGraphModel>
  </diagram>
</mxfile>
